<svg width="62" height="59" viewBox="0 0 62 59" fill="none" xmlns="http://www.w3.org/2000/svg">
<path fill-rule="evenodd" clip-rule="evenodd" d="M57.2006 29.5C57.2006 15.2441 45.2495 3.6875 30.507 3.6875C15.7645 3.6875 3.81338 15.2441 3.81338 29.5C3.81338 43.7558 15.7645 55.3125 30.507 55.3125C45.2495 55.3125 57.2006 43.7558 57.2006 29.5ZM61.014 29.5C61.014 13.2076 47.3556 5.64709e-07 30.507 3.63792e-07C13.6585 1.62875e-07 5.46069e-07 13.2076 3.51784e-07 29.5C1.57499e-07 45.7924 13.6585 59 30.507 59C47.3556 59 61.014 45.7924 61.014 29.5Z" fill="#7D806A"/>
<path fill-rule="evenodd" clip-rule="evenodd" d="M31.1084 39C31.779 39 32.3227 38.4404 32.3227 37.75L32.3227 23.2678L37.5355 28.6339C38.0097 29.122 38.7785 29.122 39.2527 28.6339C39.7269 28.1457 39.7269 27.3543 39.2527 26.8661L31.967 19.3661C31.4928 18.878 30.724 18.878 30.2498 19.3661L22.9641 26.8661C22.4898 27.3543 22.4898 28.1457 22.9641 28.6339C23.4383 29.122 24.2071 29.122 24.6813 28.6339L29.8941 23.2678L29.8941 37.75C29.8941 38.4404 30.4378 39 31.1084 39Z" fill="#7D806A"/>
</svg>
