<svg width="169" height="123" viewBox="0 0 169 123" fill="none" xmlns="http://www.w3.org/2000/svg">
<g clip-path="url(#clip0_2_57)">
<path d="M84.501 0C69.1397 0 56.6489 12.3546 56.6489 27.5422V57.0321C56.6489 72.2178 69.1397 84.5743 84.501 84.5743C99.8622 84.5743 112.351 72.2178 112.351 57.0321V27.5422C112.351 12.3546 99.8564 0 84.501 0ZM85.7104 62.779V58.7857C93.8548 59.057 101.596 62.3579 107.386 68.0286C106.776 69.2584 106.067 70.4371 105.264 71.5528C100.143 66.2313 93.1321 63.0853 85.7104 62.779ZM63.7419 71.5528C62.939 70.4371 62.2294 69.2584 61.6201 68.0286C67.4102 62.3579 75.151 59.057 83.2953 58.7857V62.779C75.8736 63.0853 68.8626 66.2313 63.7419 71.5528ZM65.837 57.0321V48.6274C66.3951 48.9815 66.9703 49.313 67.5665 49.6144C70.5478 51.1339 73.854 51.9245 77.2079 51.9199C79.2723 51.9193 81.3256 51.6211 83.3029 51.0346V56.4048C77.3172 56.5865 71.4808 58.2963 66.3608 61.3681C66.0121 59.9485 65.835 58.493 65.8332 57.0321H65.837ZM75.0252 8.93398L72.8386 5.19124C74.7563 4.20785 76.7939 3.47224 78.9012 3.00248L79.6631 7.26133C78.0556 7.63535 76.4987 8.19683 75.0252 8.93398ZM84.501 9.0809C89.4496 9.08688 94.1938 11.0336 97.693 14.4941C101.192 17.9547 103.161 22.6464 103.167 27.5403V33.3588C98.9017 33.4935 94.7777 34.9013 91.3368 37.3973C92.6559 33.5003 92.787 29.3057 91.7138 25.3355C90.6406 21.3654 88.4104 17.7951 85.3009 15.0689L84.501 14.3663L83.701 15.0689C80.5906 17.7945 78.3596 21.3646 77.2857 25.3348C76.2117 29.305 76.3424 33.4999 77.6613 37.3973C74.2207 34.9023 70.0974 33.4952 65.8332 33.3607V27.5422C65.8388 22.6476 67.8073 17.9551 71.307 14.4942C74.8067 11.0332 79.5517 9.08639 84.501 9.0809ZM89.3293 7.26133L90.0912 3.00248C92.198 3.47286 94.2354 4.20778 96.1538 5.18936L93.9729 8.93398C92.4976 8.19625 90.9388 7.63476 89.3293 7.26133ZM65.1399 35.7209C68.1129 35.7166 71.0436 36.4174 73.6862 37.7646C77.5803 39.7399 80.6574 42.9947 82.3887 46.9698L61.0525 36.1654C62.3944 35.8698 63.7651 35.7207 65.1399 35.7209ZM85.7104 42.6149V18.9058C88.5034 22.2388 90.0319 26.4316 90.0319 30.7604C90.0319 35.0891 88.5034 39.2819 85.7104 42.6149ZM83.301 42.6149C80.508 39.2819 78.9795 35.0891 78.9795 30.7604C78.9795 26.4316 80.508 22.2388 83.301 18.9058V42.6149ZM95.3119 37.7646C99.2044 35.7844 103.676 35.2184 107.948 36.1654L86.6037 46.9698C88.3345 42.9944 91.4117 39.7394 95.3062 37.7646H95.3119ZM105.582 33.4134V28.7345H109.949V34.2253C108.524 33.8038 107.059 33.5317 105.576 33.4134H105.582ZM105.546 26.3518C105.453 24.7222 105.165 23.1092 104.689 21.5467L108.801 20.0643C109.443 22.1044 109.819 24.2173 109.919 26.3518H105.546ZM103.864 19.3089C103.209 17.8096 102.378 16.3916 101.388 15.084L104.732 12.3094C106.045 14.0054 107.133 15.8601 107.97 17.8284L103.864 19.3089ZM65.1475 19.3089L61.0372 17.8303C61.876 15.8619 62.964 14.0068 64.2752 12.3094L67.616 15.0859C66.6263 16.3928 65.7952 17.8102 65.1399 19.3089H65.1475ZM64.3228 21.5467C63.8463 23.1099 63.5586 24.7235 63.4657 26.3536H59.0888C59.1875 24.22 59.5619 22.1076 60.203 20.068L64.3228 21.5467ZM63.4257 28.7364V33.4134C61.9458 33.5319 60.4825 33.804 59.0602 34.2253V28.7364H63.4257ZM81.3011 49.0889C79.9568 49.3863 78.5836 49.5366 77.206 49.5372C74.2337 49.5412 71.3036 48.8404 68.6617 47.4934C64.7673 45.5193 61.6901 42.265 59.9592 38.2901L81.3011 49.0889ZM102.647 61.3681C97.5285 58.2972 91.6942 56.5875 85.7104 56.4048V51.0346C87.6877 51.6213 89.741 51.9195 91.8054 51.9199C95.16 51.9248 98.4669 51.1342 101.449 49.6144C102.045 49.313 102.62 48.9796 103.18 48.6274V57.0321C103.176 58.4932 102.997 59.9487 102.647 61.3681ZM100.34 47.4934C97.6978 48.8412 94.7671 49.5427 91.794 49.5391C90.4172 49.5382 89.0447 49.3885 87.7008 49.0926L109.043 38.292C107.311 42.266 104.234 45.5195 100.34 47.4934ZM103.182 10.4842L99.8336 13.2644C98.7024 12.0773 97.4356 11.0242 96.0585 10.1263L98.2413 6.38357C100.056 7.53898 101.717 8.91679 103.182 10.4842ZM87.7256 2.58997L86.9637 6.84694C86.1458 6.75035 85.3228 6.70129 84.4991 6.70002C83.6715 6.70201 82.8448 6.75107 82.023 6.84694L81.2611 2.58997C83.4029 2.3112 85.5724 2.3112 87.7141 2.58997H87.7256ZM70.7568 6.38545L72.9491 10.1282C71.5717 11.0255 70.3048 12.0787 69.174 13.2663L65.8161 10.4861C67.282 8.91911 68.942 7.54135 70.7568 6.38545ZM59.0583 41.7465C60.2284 43.6705 61.7029 45.3965 63.4257 46.8587V57.0302C63.4244 58.9663 63.6969 60.893 64.2352 62.7545C62.9645 63.6483 61.7555 64.6249 60.6163 65.6779C59.5893 62.908 59.0651 59.9804 59.0678 57.0302L59.0583 41.7465ZM85.7104 71.5397C90.7712 71.8362 95.5238 74.0423 98.9879 77.7028C97.848 78.4887 96.6454 79.1817 95.3919 79.7748C92.7581 77.2973 89.336 75.8013 85.7104 75.5423V71.5397ZM83.301 75.5423C79.6766 75.8014 76.2552 77.2952 73.6195 79.7692C72.3661 79.176 71.1634 78.4831 70.0235 77.6972C73.4878 74.0369 78.2403 71.8309 83.301 71.534V75.5423ZM76.1128 80.7788C78.4966 78.8977 81.4559 77.8731 84.5057 77.8731C87.5555 77.8731 90.5148 78.8977 92.8987 80.7788C87.4657 82.6637 81.5457 82.6637 76.1128 80.7788ZM100.908 76.2449C98.8215 73.9988 96.2863 72.2057 93.4627 70.9791C90.6391 69.7525 87.5888 69.1191 84.5048 69.1191C81.4208 69.1191 78.3704 69.7525 75.5468 70.9791C72.7232 72.2057 70.188 73.9988 68.1017 76.2449C67.0788 75.3918 66.1249 74.4609 65.2485 73.4609C67.7035 70.8355 70.6811 68.7407 73.9942 67.3079C77.3072 65.8752 80.8841 65.1356 84.5 65.1356C88.1159 65.1356 91.6928 65.8752 95.0058 67.3079C98.3189 68.7407 101.296 70.8355 103.752 73.4609C102.877 74.4612 101.924 75.3921 100.902 76.2449H100.908ZM108.401 65.6797C107.258 64.627 106.046 63.6504 104.772 62.7564C105.31 60.8949 105.583 58.9681 105.582 57.0321V46.8605C107.304 45.3978 108.779 43.6719 109.949 41.7484V57.034C109.949 59.9838 109.423 62.9106 108.395 65.6797H108.401Z" fill="#7D806A"/>
<path d="M97.6718 28.3615C98.1072 28.3615 98.5328 28.2339 98.8949 27.9947C99.2569 27.7555 99.5391 27.4155 99.7058 27.0178C99.8725 26.62 99.9162 26.1823 99.8314 25.7599C99.7466 25.3376 99.5371 24.9496 99.2294 24.645C98.9216 24.3404 98.5295 24.1329 98.1025 24.0487C97.6755 23.9644 97.2329 24.0073 96.8305 24.1718C96.4282 24.3363 96.0842 24.6151 95.842 24.973C95.5998 25.3308 95.4704 25.7516 95.47 26.1822C95.4697 26.4683 95.5265 26.7516 95.637 27.016C95.7476 27.2804 95.9097 27.5207 96.1142 27.7231C96.3187 27.9255 96.5615 28.086 96.8288 28.1956C97.096 28.3051 97.3825 28.3615 97.6718 28.3615Z" fill="#7D806A"/>
<path d="M69.1264 26.1823C69.1264 26.613 69.2555 27.034 69.4975 27.3921C69.7394 27.7502 70.0833 28.0292 70.4856 28.1941C70.888 28.3589 71.3307 28.402 71.7578 28.318C72.1849 28.2339 72.5772 28.0266 72.8851 27.722C73.1931 27.4175 73.4028 27.0295 73.4877 26.6071C73.5727 26.1848 73.5291 25.7469 73.3624 25.3491C73.1958 24.9512 72.9136 24.6111 72.5515 24.3719C72.1894 24.1326 71.7637 24.0049 71.3282 24.0049C70.7443 24.0049 70.1842 24.2343 69.7713 24.6426C69.3584 25.051 69.1264 25.6048 69.1264 26.1823Z" fill="#7D806A"/>
<path d="M8.2682 99.5679H5.55023C4.12172 99.5679 3.03097 99.9208 2.27799 100.627C1.52501 101.332 1.14662 102.493 1.14281 104.109H0V100.892C0 98.8729 1.0844 97.8633 3.25319 97.8633H21.2448V99.5679H13.2451V122.849H8.2682V99.5679Z" fill="#7D806A"/>
<path d="M25.0351 102.785C25.0351 101.499 24.856 100.547 24.4979 99.9277C24.1399 99.3086 23.4256 98.9991 22.3552 98.9991H21.9743V97.8689H38.8554C41.0242 97.8689 42.1086 98.8785 42.1086 100.898V104.115H40.9658C40.9658 102.552 40.5639 101.403 39.7601 100.67C38.9563 99.9365 37.7634 99.5711 36.1812 99.5736H30.0101V109.037H39.9639V110.732H30.0101V121.143H36.5564C38.0116 121.143 39.2236 120.821 40.1925 120.178C41.1613 119.535 41.9651 118.418 42.6038 116.827L43.638 117.204L42.5276 120.195C42.1962 121.103 41.8007 121.772 41.341 122.201C40.8813 122.631 40.1671 122.847 39.1982 122.849H25.0351V102.785Z" fill="#7D806A"/>
<path d="M64.0409 121.996C62.7394 121.329 61.6804 120.023 60.8639 118.078L59.984 115.959H49.8016L46.6646 122.849H44.6723L55.9632 97.8633H57.6869L66.258 118.078C67.2281 120.425 68.555 121.687 70.2387 121.864V122.806C69.6368 122.947 69.019 123.01 68.4007 122.994C66.8869 123.018 65.3903 122.675 64.0409 121.996ZM50.6053 114.254H59.2564L55.0451 104.375L50.6053 114.254Z" fill="#7D806A"/>
<path d="M72.7682 102.785C72.7682 101.499 72.5891 100.547 72.231 99.9277C71.873 99.3086 71.16 98.9991 70.0921 98.9991H69.7112V97.8689H74.3052C75.2233 97.8689 75.9248 98.0202 76.4099 98.3228C76.895 98.6255 77.2397 99.124 77.4441 99.8184C77.6473 100.514 77.7489 101.505 77.7489 102.791V121.15H90.9559V122.855H72.7682V102.785Z" fill="#7D806A"/>
<path d="M110.625 121.996C109.325 121.329 108.266 120.023 107.448 118.078L106.569 115.959H96.3861L93.2472 122.849H91.2568L102.55 97.8633H104.264L112.835 118.078C113.804 120.425 115.131 121.687 116.816 121.864V122.806C116.214 122.947 115.596 123.01 114.978 122.994C113.466 123.016 111.973 122.674 110.625 121.996ZM97.1899 114.254H105.841L101.63 104.375L97.1899 114.254Z" fill="#7D806A"/>
<path d="M121.381 104.109V122.849H119.477V102.407C119.477 101.345 119.215 100.513 118.692 99.9089C118.169 99.3049 117.28 99.0016 116.025 98.9991H115.835V97.8689H118.515C119.943 97.8689 121.111 98.0523 122.017 98.4189C122.921 98.7805 123.71 99.375 124.303 100.141L137.459 115.277V97.8633H139.363V122.962H137.613L121.381 104.109Z" fill="#7D806A"/>
<path d="M145.841 102.785C145.841 101.499 145.663 100.547 145.306 99.9277C144.949 99.3086 144.234 98.9991 143.161 98.9991H142.78V97.8689H153.193C158.347 97.8689 162.271 98.9482 164.964 101.107C167.657 103.265 169.003 106.3 169.002 110.21C169.002 112.708 168.434 114.91 167.299 116.816C166.164 118.722 164.48 120.205 162.246 121.265C160.011 122.324 157.326 122.854 154.189 122.855H145.841V102.785ZM154.071 121.335C155.755 121.365 157.41 120.906 158.833 120.016C160.23 119.137 161.315 117.863 162.088 116.193C162.861 114.523 163.25 112.576 163.256 110.353C163.256 108.158 162.866 106.235 162.088 104.582C161.387 103.02 160.252 101.687 158.814 100.74C157.379 99.8211 155.7 99.3463 153.991 99.3758H153.688C153.009 99.3626 152.33 99.4137 151.66 99.5284L150.818 99.6414V121.069L151.66 121.22C152.332 121.305 153.01 121.344 153.688 121.335H154.071Z" fill="#7D806A"/>
</g>
<defs>
<clipPath id="clip0_2_57">
<rect width="169" height="123" fill="white"/>
</clipPath>
</defs>
</svg>
